<?xml version="1.0" encoding="utf-8"?>
<!-- Generator: Adobe Illustrator 16.0.0, SVG Export Plug-In . SVG Version: 6.00 Build 0)  -->
<!DOCTYPE svg PUBLIC "-//W3C//DTD SVG 1.0//EN" "http://www.w3.org/TR/2001/REC-SVG-20010904/DTD/svg10.dtd">
<svg version="1.0" xmlns="http://www.w3.org/2000/svg" xmlns:xlink="http://www.w3.org/1999/xlink" x="0px" y="0px" width="69.04px"
	 height="69.04px" viewBox="0 0 69.04 69.04" enable-background="new 0 0 69.04 69.04" xml:space="preserve">
<g id="Background">
	<g>
		<path fill-rule="evenodd" clip-rule="evenodd" fill="#27AE60" d="M5.52,0C2.47,0,0,2.47,0,5.52v58c0,3.05,2.47,5.52,5.52,5.52h58
			c3.05,0,5.52-2.47,5.52-5.52v-58c0-3.05-2.47-5.52-5.52-5.52H5.52z M40.48,23.26h2.69l9.01,24.79h-2.73L40.48,23.26z M28.56,37.42
			v-1.77h8.85v11.21c-1.38,0.38-2.79,0.69-4.2,0.88c-1.44,0.22-3.07,0.31-4.95,0.31c-3.96,0-7.03-1.08-9.21-3.24
			c-2.22-2.16-3.29-5.23-3.29-9.16c0-2.49,0.52-4.7,1.63-6.58c1.08-1.88,2.63-3.32,4.67-4.31c2.05-1,4.43-1.5,7.19-1.5
			c2.77,0,5.37,0.33,7.78,1l-1.19,2.24c-2.38-0.97-4.65-1.47-6.81-1.47c-3.21,0-5.7,0.94-7.47,2.82c-1.79,1.89-2.68,4.46-2.68,7.78
			c0,3.48,0.86,6.14,2.6,7.94c1.72,1.82,4.29,2.71,7.66,2.71c1.83,0,3.6-0.2,5.34-0.64v-8.22H28.56z"/>
	</g>
</g>
<g id="Layer_1">
</g>
</svg>
