<?xml version="1.0" encoding="utf-8"?>
<!-- Generator: Adobe Illustrator 16.0.0, SVG Export Plug-In . SVG Version: 6.00 Build 0)  -->
<!DOCTYPE svg PUBLIC "-//W3C//DTD SVG 1.1//EN" "http://www.w3.org/Graphics/SVG/1.1/DTD/svg11.dtd">
<svg version="1.1" id="Layer_1" xmlns="http://www.w3.org/2000/svg" xmlns:xlink="http://www.w3.org/1999/xlink" x="0px" y="0px"
	 width="69.04px" height="69.04px" viewBox="0 0 69.04 69.04" enable-background="new 0 0 69.04 69.04" xml:space="preserve">
<path fill="#FFFFFF" d="M5.52,0C2.47,0,0,2.471,0,5.521v58.001c0,3.049,2.47,5.52,5.52,5.52h58c3.051,0,5.521-2.471,5.521-5.52
	V5.521C69.042,2.471,66.571,0,63.52,0H5.52z M41.1,23.011h2.689l9.01,24.791h-2.729L41.1,23.011z M29.18,37.17v-1.77h8.85v11.211
	c-1.379,0.379-2.789,0.688-4.2,0.879c-1.44,0.221-3.07,0.311-4.951,0.311c-3.959,0-7.029-1.08-9.209-3.24
	c-2.221-2.158-3.291-5.229-3.291-9.158c0-2.481,0.521-4.702,1.631-6.581c1.08-1.881,2.619-3.32,4.67-4.311
	c2.05-1,4.43-1.5,7.189-1.5c2.771,0,5.372,0.33,7.782,1l-1.191,2.24c-2.379-0.971-4.65-1.471-6.81-1.471c-3.21,0-5.7,0.94-7.47,2.82
	c-1.79,1.891-2.68,4.46-2.68,7.78c0,3.48,0.859,6.143,2.6,7.941c1.72,1.818,4.29,2.709,7.66,2.709c1.83,0,3.6-0.199,5.34-0.641
	V37.17H29.18L29.18,37.17z"/>
</svg>
